<svg width="1630" height="1630" viewBox="0 0 1630 1630" fill="none" xmlns="http://www.w3.org/2000/svg">
<rect width="1630" height="1630" rx="815" fill="white"/>
<path d="M814.729 629.678C645.845 629.678 476.961 629.761 308.077 629.46C298.445 629.46 295.353 630.992 295.38 641.663C295.791 827.157 295.681 1012.65 295.681 1198.17C295.681 1238.09 318.064 1260.39 358.151 1260.39C525.886 1260.39 693.593 1260.39 861.328 1260.39C865.186 1260.39 869.154 1259.98 872.903 1260.64C882.89 1262.36 888.937 1268.52 889.074 1278.73C889.183 1288.99 883.218 1295.17 873.313 1297.17C869.975 1297.85 866.39 1297.47 862.915 1297.47C694.414 1297.47 525.913 1297.47 357.439 1297.47C297.816 1297.47 258.632 1258.42 258.605 1199.02C258.55 955.571 258.55 712.096 258.55 468.62C258.55 409.051 297.624 370.032 357.166 369.977C383.051 369.949 408.964 369.648 434.849 370.168C442.62 370.333 444.289 367.925 444.262 360.564C444.18 346.335 442.675 331.997 445.74 317.823C453.921 280.363 488.152 255.08 525.722 258.938C562.908 262.741 591.475 293.798 592.432 331.45C592.487 333.776 592.35 336.101 592.487 338.4C593.116 348.688 588 362.78 594.512 368.226C600.751 373.425 614.323 369.922 624.693 369.949C659.855 370.032 695.043 369.703 730.205 370.168C738.441 370.278 741.478 368.882 741.177 359.716C740.685 345.514 739.536 331.176 742.737 317.002C751.001 280.226 784.903 255.326 822.226 258.911C859.358 262.468 888.253 293.552 889.211 331.121C889.484 341.93 889.539 352.765 889.211 363.574C889.047 368.691 890.661 370.086 895.723 370.059C940.927 369.867 986.158 369.813 1031.36 370.114C1037.9 370.168 1037.68 367.049 1037.82 362.37C1038.26 347.348 1036.23 332.243 1039.54 317.303C1047.7 280.363 1081.3 255.518 1118.73 258.883C1155.81 262.222 1184.98 293.306 1186.04 330.793C1186.32 340.452 1186.89 350.193 1185.93 359.743C1185 369.046 1188.73 370.305 1196.88 370.141C1223.91 369.648 1250.98 369.758 1278.04 370.004C1330.88 370.469 1371.48 410.474 1371.56 463.202C1371.84 622.427 1371.67 781.652 1371.65 940.877C1371.65 955.243 1364.31 963.807 1352.71 963.534C1341.49 963.26 1334.79 955.024 1334.57 941.233C1334.54 938.524 1334.57 935.815 1334.57 933.106C1334.57 836.104 1334.43 739.103 1334.79 642.101C1334.82 632.469 1333.28 629.35 1322.61 629.377C1153.35 629.788 984.078 629.678 814.811 629.678H814.729ZM815.03 592.574C949.491 592.574 1083.95 592.574 1218.41 592.574C1254.34 592.574 1290.3 592.438 1326.22 592.711C1332.55 592.766 1334.71 591.37 1334.65 584.584C1334.32 543.622 1334.82 502.66 1334.32 461.725C1333.97 431.434 1309.83 407.628 1279.49 407.19C1250.89 406.78 1222.3 407.245 1193.71 406.944C1187.77 406.889 1185.63 408.312 1185.93 414.551C1186.45 424.949 1186.26 435.402 1185.99 445.827C1185.06 483.369 1156.25 514.398 1119.09 518.092C1081.96 521.786 1047.81 496.749 1039.57 460.083C1036.2 445.143 1038.17 430.066 1037.79 415.044C1037.65 409.79 1037.52 406.807 1030.57 406.862C985.747 407.218 940.927 407.163 896.106 406.917C890.333 406.889 888.992 408.777 889.156 414.168C889.512 424.976 889.485 435.812 889.156 446.62C888.034 483.971 858.537 515.028 821.488 518.147C784.548 521.266 751.001 496.558 742.819 460.439C739.344 445.115 741.314 429.655 741.013 414.25C740.904 409.024 740.028 406.889 734.118 406.917C689.297 407.163 644.477 407.218 599.656 406.889C592.898 406.835 592.213 409.544 592.378 414.989C592.651 425.414 592.651 435.867 592.378 446.292C591.338 483.725 562.142 514.781 525.037 518.147C487.742 521.54 454.003 496.558 445.876 459.673C442.648 445.115 444.207 430.394 444.289 415.782C444.344 408.641 442.566 406.753 435.369 406.862C409.101 407.327 382.832 407.026 356.536 407.054C318.748 407.108 295.736 429.902 295.681 467.389C295.627 505.259 296.037 543.129 295.408 580.972C295.244 590.686 297.761 592.793 307.311 592.793C476.55 592.465 645.79 592.547 815.03 592.547V592.574ZM555.356 389.623C555.356 371.126 555.52 352.601 555.301 334.104C555.055 312.405 539.294 296.069 518.744 295.796C497.592 295.522 481.312 311.913 481.202 334.186C481.011 370.442 481.011 406.67 481.202 442.926C481.312 464.598 497.209 480.988 517.704 481.262C538.774 481.535 555.027 465.063 555.301 442.844C555.52 425.113 555.356 407.382 555.356 389.623ZM777.981 387.708C777.981 405.822 777.871 423.964 778.008 442.078C778.199 464.543 793.878 481.152 814.866 481.262C835.908 481.371 852.025 464.871 852.134 442.543C852.326 406.67 852.298 370.825 852.134 334.952C852.025 312.46 836.236 295.905 815.276 295.796C794.152 295.686 778.254 312.104 778.008 334.487C777.844 352.218 777.981 369.949 777.981 387.708ZM1074.79 388.501C1074.79 406.616 1074.62 424.757 1074.81 442.872C1075.06 464.57 1090.77 480.961 1111.26 481.262C1132.33 481.563 1148.78 465.118 1148.91 442.899C1149.13 406.643 1149.13 370.415 1148.91 334.159C1148.78 311.967 1132.33 295.495 1111.29 295.796C1090.68 296.097 1075.06 312.323 1074.81 334.131C1074.62 352.246 1074.76 370.387 1074.76 388.501H1074.79Z" fill="#14C0C0"/>
<path d="M889.293 1129.11C889.046 997.736 997.568 889.79 1130.39 889.379C1262.25 888.941 1371.15 997.162 1371.59 1129.02C1372.06 1262.2 1264.27 1371.43 1132.22 1371.62C997.075 1371.84 889.566 1264.5 889.293 1129.11ZM926.424 1131.51C926.397 1243.37 1018.61 1334.74 1131.37 1334.57C1242.41 1334.41 1334.13 1242.85 1334.46 1131.84C1334.79 1019 1243.45 926.456 1131.76 926.511C1017.43 926.566 926.452 1017.41 926.424 1131.49V1131.51Z" fill="#14C0C0"/>
<path d="M482.433 722.44C494.391 722.44 506.348 722.221 518.306 722.495C539.129 722.988 554.835 738.393 555.273 759.161C555.656 778.042 555.684 796.977 555.273 815.857C554.808 836.079 539.348 851.812 519.209 852.168C493.761 852.633 468.286 852.661 442.839 852.168C422.809 851.758 407.458 835.805 407.048 815.584C406.692 797.086 406.747 778.562 407.048 760.037C407.376 738.448 422.809 722.96 444.289 722.522C457.013 722.249 469.737 722.468 482.46 722.468L482.433 722.44ZM478.137 815.201C490.56 815.201 501.012 814.872 511.41 815.337C517.184 815.584 518.497 813.504 518.388 808.114C518.032 794.213 518.005 780.313 518.388 766.413C518.552 760.639 516.527 759.353 511.164 759.462C495.348 759.791 479.505 759.572 463.662 759.572C444.07 759.572 444.015 759.572 444.097 779.41C444.152 790.93 440.02 806.417 445.849 812.93C452.553 820.427 468.341 814.134 478.137 815.201Z" fill="#14C0C0"/>
<path d="M703.691 852.305C691.733 852.305 679.776 852.469 667.818 852.278C645.627 851.922 629.921 836.489 629.62 814.462C629.373 796.348 629.346 778.206 629.62 760.092C629.948 738.503 645.353 722.824 666.806 722.523C691.487 722.194 716.169 722.194 740.85 722.523C761.673 722.796 777.434 738.366 777.872 759.08C778.282 777.96 778.282 796.895 777.872 815.776C777.407 836.489 761.646 851.758 740.713 852.223C728.372 852.497 716.032 852.278 703.691 852.278V852.305ZM704.047 759.545C694.388 759.545 684.729 759.873 675.097 759.435C668.94 759.134 666.204 760.393 666.505 767.425C667.107 780.532 666.97 793.694 666.532 806.8C666.341 812.957 667.517 815.557 674.522 815.365C693.813 814.873 713.131 814.955 732.45 815.31C738.606 815.42 741.342 814.353 741.014 807.32C740.412 794.214 740.303 781.025 741.041 767.945C741.479 760.174 738.442 759.025 731.82 759.408C722.572 759.928 713.295 759.545 704.019 759.545H704.047Z" fill="#14C0C0"/>
<path d="M925.795 852.302C913.837 852.302 901.88 852.494 889.922 852.247C868.387 851.837 852.599 836.432 852.243 815.116C851.915 796.619 851.915 778.094 852.243 759.569C852.626 738.117 868.25 722.711 889.895 722.492C914.193 722.219 938.491 722.219 962.789 722.492C984.817 722.739 1000.25 738.472 1000.52 760.718C1000.74 778.45 1000.74 796.208 1000.52 813.939C1000.22 836.733 984.68 851.974 961.668 852.247C949.71 852.384 937.752 852.247 925.795 852.247V852.302ZM927.436 815.198C937.096 815.198 946.755 814.897 956.386 815.307C961.832 815.526 963.747 814.049 963.583 808.33C963.173 794.429 963.2 780.529 963.583 766.629C963.72 761.184 962.297 759.35 956.578 759.432C936.494 759.761 916.409 759.733 896.325 759.432C890.88 759.35 888.964 760.691 889.128 766.437C889.539 780.338 889.511 794.238 889.128 808.138C888.992 813.584 890.414 815.581 896.133 815.335C906.531 814.897 916.984 815.198 927.409 815.198H927.436Z" fill="#14C0C0"/>
<path d="M1148.89 852.278C1136.55 852.278 1124.2 852.524 1111.86 852.223C1091.04 851.73 1075.31 836.243 1074.9 815.584C1074.51 796.704 1074.51 777.768 1074.9 758.888C1075.33 738.612 1090.71 722.933 1110.91 722.577C1136.35 722.112 1161.83 722.112 1187.28 722.577C1206.87 722.933 1222.49 738.421 1223.04 757.958C1223.61 777.604 1223.61 797.306 1223.04 816.952C1222.44 836.435 1206.76 851.539 1187.08 852.196C1174.36 852.606 1161.64 852.278 1148.91 852.278H1148.89ZM1145.85 815.201C1158.27 815.201 1168.72 814.9 1179.12 815.31C1184.7 815.529 1186.37 813.778 1186.21 808.223C1185.83 794.323 1185.83 780.423 1186.21 766.522C1186.37 760.94 1184.68 759.298 1179.09 759.435C1163.28 759.791 1147.44 759.572 1131.59 759.572C1111.89 759.572 1111.84 759.572 1111.92 779.273C1111.97 790.793 1107.79 806.226 1113.59 812.848C1120.26 820.455 1136.05 814.052 1145.85 815.201Z" fill="#14C0C0"/>
<path d="M481.474 889.41C493.815 889.41 506.156 889.164 518.497 889.465C539.238 889.985 554.862 905.5 555.272 926.323C555.628 945.203 555.683 964.138 555.245 983.019C554.752 1003.19 539.183 1018.78 519.016 1019.17C493.952 1019.6 468.888 1019.58 443.823 1019.17C423.082 1018.86 407.458 1003.05 407.075 982.335C406.719 963.454 406.664 944.519 407.102 925.639C407.567 905.418 423.082 890.094 443.331 889.492C456.054 889.109 468.778 889.41 481.502 889.41H481.474ZM480.407 982.143C490.45 982.143 500.492 981.842 510.534 982.253C516.307 982.499 518.661 981.186 518.414 974.755C517.895 961.265 518.004 947.721 518.36 934.203C518.524 928.43 517.265 926.186 510.862 926.323C491.188 926.761 471.46 926.679 451.786 926.378C446.039 926.295 443.659 927.445 443.905 933.875C444.425 947.365 444.316 960.91 443.96 974.427C443.796 980.2 445.054 982.69 451.457 982.28C461.089 981.705 470.748 982.143 480.407 982.143Z" fill="#14C0C0"/>
<path d="M703.089 1019.24C691.132 1019.24 679.174 1019.44 667.217 1019.22C645.709 1018.78 630.003 1003.32 629.647 981.975C629.346 963.478 629.319 944.953 629.647 926.428C630.03 905.496 645.436 889.817 666.259 889.488C691.323 889.105 716.388 889.105 741.452 889.488C761.646 889.817 777.325 905.359 777.818 925.471C778.283 944.734 778.31 964.052 777.818 983.316C777.27 1003.4 761.537 1018.61 741.261 1019.16C728.537 1019.49 715.813 1019.22 703.089 1019.22V1019.24ZM703.226 982.139C713.651 982.139 724.077 981.866 734.502 982.249C739.619 982.44 741.096 980.799 740.987 975.736C740.659 961.453 740.659 947.142 740.987 932.886C741.096 927.769 739.509 926.346 734.447 926.401C713.98 926.675 693.512 926.675 673.045 926.401C667.928 926.319 666.45 927.879 666.56 932.913C666.888 947.197 666.888 961.508 666.56 975.764C666.45 980.908 668.037 982.413 673.1 982.221C683.114 981.866 693.184 982.112 703.226 982.112V982.139Z" fill="#14C0C0"/>
<path d="M479.998 1186.21C468.423 1186.21 456.848 1186.35 445.274 1186.18C423.028 1185.83 407.322 1170.45 406.993 1148.45C406.72 1130.34 406.72 1112.19 406.993 1094.08C407.322 1071.94 422.891 1056.62 445.247 1056.43C469.162 1056.21 493.077 1056.21 516.992 1056.43C539.238 1056.62 554.945 1072.08 555.273 1094.11C555.547 1112.22 555.547 1130.36 555.273 1148.48C554.917 1170.53 539.293 1185.86 516.992 1186.18C504.652 1186.38 492.311 1186.21 479.97 1186.21H479.998ZM478.219 1149.11C490.259 1149.11 500.328 1148.64 510.343 1149.27C517.266 1149.71 518.607 1147.03 518.388 1140.76C517.95 1127.65 517.84 1114.49 518.415 1101.39C518.716 1094.46 516.144 1093.18 509.905 1093.34C494.473 1093.75 479.012 1093.48 463.552 1093.48C444.043 1093.48 443.988 1093.48 444.07 1113.4C444.125 1124.92 440.048 1140.46 445.876 1146.86C452.607 1154.28 468.396 1148.07 478.192 1149.11H478.219Z" fill="#14C0C0"/>
<path d="M703.143 1186.22C691.568 1186.22 679.994 1186.32 668.419 1186.22C645.407 1185.91 629.865 1170.65 629.591 1147.85C629.372 1130.12 629.372 1112.36 629.591 1094.63C629.865 1072.3 645.188 1056.68 667.325 1056.43C691.623 1056.16 715.921 1056.16 740.22 1056.43C761.754 1056.68 777.488 1072.19 777.871 1093.56C778.199 1112.06 778.227 1130.59 777.871 1149.11C777.461 1170.48 761.754 1185.8 740.165 1186.22C727.824 1186.43 715.484 1186.27 703.143 1186.27V1186.22ZM700.899 1149.11C712.556 1149.11 722.242 1148.73 731.847 1149.25C738.468 1149.6 741.506 1148.48 741.068 1140.71C740.329 1127.63 740.439 1114.44 741.041 1101.34C741.369 1094.3 738.605 1093.18 732.476 1093.35C717.043 1093.73 701.583 1093.48 686.123 1093.48C666.695 1093.48 666.613 1093.48 666.723 1113.46C666.778 1124.98 662.728 1140.55 668.556 1146.89C675.315 1154.26 691.076 1148.1 700.899 1149.11Z" fill="#14C0C0"/>
<path d="M925.384 889.41C937.341 889.41 949.299 889.246 961.229 889.438C973.871 889.657 981.916 896.962 981.943 907.88C981.998 918.771 973.926 926.323 961.339 926.46C940.516 926.679 919.692 926.98 898.897 926.295C890.414 926.022 888.499 928.813 889.101 936.611C889.785 945.422 889.155 954.342 889.292 963.208C889.429 972.511 886.255 982.472 900.292 986.603C907.379 988.683 909.377 997.822 907.023 1005.62C904.396 1014.21 898.212 1018.89 889.046 1019.25C870.795 1019.93 853.091 1003.9 852.407 984.715C851.668 964.686 851.75 944.601 852.352 924.572C852.927 905.034 868.633 890.094 888.389 889.492C900.702 889.109 913.071 889.41 925.411 889.41H925.384Z" fill="#14C0C0"/>
<path d="M1269.2 1065.76C1268.79 1072 1266.11 1076.9 1261.84 1081.17C1210.78 1132.17 1159.8 1183.29 1108.66 1234.24C1097.88 1244.99 1088.6 1244.74 1077.6 1233.85C1052.95 1209.39 1028.38 1184.82 1003.92 1160.14C994.174 1150.31 993.654 1139.78 1001.95 1131.65C1010.15 1123.61 1020.52 1124.35 1030.46 1134.17C1048.57 1152.07 1066.82 1169.88 1084.36 1188.35C1091.01 1195.35 1094.54 1196.42 1102.07 1188.73C1145.55 1144.35 1189.74 1100.65 1233.65 1056.65C1239.92 1050.39 1246.41 1045.3 1256.04 1048.61C1264.33 1051.45 1268.13 1057.61 1269.2 1065.76Z" fill="#14C0C0"/>
</svg>
