<svg width="20" height="21" viewBox="0 0 20 21" fill="none" xmlns="http://www.w3.org/2000/svg">
<path d="M0.799805 0.630371H2.22758C3.21492 0.630371 4.06651 1.3238 4.26655 2.29067L6.70275 14.0657C6.90279 15.0325 7.75439 15.726 8.74176 15.726H15.8954" stroke="white" stroke-linecap="round" stroke-linejoin="round"/>
<path d="M4.78125 4.79468H18.1592C18.8508 4.79468 19.3502 5.4567 19.1602 6.12176L18.1044 9.81704C17.7213 11.1578 16.4957 12.0822 15.1013 12.0822H6.29406" stroke="white" stroke-linecap="round" stroke-linejoin="round"/>
<path d="M14.8545 19.8697C15.4182 19.8697 15.8751 19.4128 15.8751 18.8492C15.8751 18.2855 15.4182 17.8286 14.8545 17.8286C14.2909 17.8286 13.834 18.2855 13.834 18.8492C13.834 19.4128 14.2909 19.8697 14.8545 19.8697Z" stroke="white" stroke-linecap="round" stroke-linejoin="round"/>
<path d="M8.60745 17.8286C9.17108 17.8286 9.62799 18.2855 9.62799 18.8491C9.62799 19.4127 9.17108 19.8696 8.60745 19.8696C8.04382 19.8696 7.58691 19.4127 7.58691 18.8491C7.58691 18.2855 8.04382 17.8286 8.60745 17.8286Z" stroke="white" stroke-linecap="round" stroke-linejoin="round"/>
</svg>
