<svg width="1630" height="1630" viewBox="0 0 1630 1630" fill="none" xmlns="http://www.w3.org/2000/svg">
<rect width="1630" height="1630" rx="815" fill="white"/>
<path d="M860.14 204.381C868.17 209.521 877.522 207.498 886.146 208.535C1144.48 239.555 1353.99 428.62 1410.86 682.532C1479.04 986.894 1305.31 1293.59 1007.8 1394.07C724.762 1489.65 409.538 1361.4 272.642 1095.19C236.299 1024.52 214.485 949.754 206.878 870.738C206.67 868.594 207.669 865.793 204.381 864.908V764.754C208.244 763.521 206.55 760.176 206.916 757.73C210.293 735.372 212.329 712.743 217.039 690.676C270.954 437.807 472.779 248.204 727.02 210.767C739.621 208.914 752.722 209.654 764.754 204.381H860.14ZM257.284 814.932C257.461 1122.41 508.319 1373.04 815.229 1372.38C1122.66 1371.71 1371.56 1122.86 1372.38 815.324C1373.19 508.496 1122.63 257.613 815.027 257.278C507.908 256.943 257.107 507.7 257.284 814.926V814.932Z" fill="#14C0C0"/>
<path d="M788.433 687.792C788.433 647.276 788.256 606.765 788.509 566.249C788.642 544.561 804.828 531.77 823.411 538.043C835.115 541.994 841.159 551.567 841.21 567.159C841.324 602.909 841.248 638.658 841.248 674.401C841.248 714.121 841.463 753.841 841.064 793.561C840.989 801.388 843.505 806.668 848.943 812.087C938.417 901.245 1027.7 990.593 1117.01 1079.91C1134.31 1097.21 1136.48 1111.58 1123.7 1124.05C1110.95 1136.5 1097.1 1134.18 1079.56 1116.64C987.432 1024.51 895.403 932.296 803.064 840.394C792.771 830.151 787.946 819.231 788.206 804.562C788.901 765.652 788.439 726.716 788.446 687.792H788.433Z" fill="#14C0C0"/>
<path d="M841.242 371.159C841.153 387.769 834.527 398.65 822.482 401.989C810.753 405.239 798.208 401.034 792.79 390.475C785.93 377.096 785.784 362.888 793.093 349.585C798.367 339.987 807.573 336.547 818.366 337.875C828.786 339.159 835.551 345.172 839.37 354.757C841.482 360.056 841.261 365.62 841.235 371.165L841.242 371.159Z" fill="#14C0C0"/>
<path d="M369.299 841.248C345.778 841.103 331.369 823.746 339.43 804.93C345.045 791.829 356.11 788.383 369.457 788.269C383.108 788.155 395.28 790.868 400.875 804.544C408.147 822.324 396.759 843.486 369.299 841.248Z" fill="#14C0C0"/>
<path d="M1258.32 841.248C1246.48 841.918 1235.38 838.687 1229.41 826.364C1225.01 817.266 1225.52 808.041 1231.75 799.517C1243.33 783.672 1275.94 783.786 1287.27 799.758C1293.35 808.338 1293.76 817.481 1289.31 826.68C1284.23 837.176 1275.29 841.267 1258.32 841.248Z" fill="#14C0C0"/>
<path d="M788.471 1259.09C787.75 1246.25 791.133 1235.2 803.469 1229.32C812.586 1224.98 821.824 1225.57 830.309 1231.85C845.585 1243.15 845.895 1275.23 830.746 1286.72C822.412 1293.04 813.181 1294.01 803.899 1289.7C790.924 1283.68 787.7 1272.24 788.471 1259.09V1259.09Z" fill="#14C0C0"/>
<path d="M531.79 506.025C531.423 516.489 526.206 524.045 517.241 528.774C508.591 533.339 499.897 532.916 491.595 527.295C484.969 522.806 479.386 517.286 474.909 510.704C467.834 500.284 468.96 487.297 477.54 478.318C486.36 469.093 499.986 467.702 510.785 474.929C523.703 483.579 531.979 495.813 531.783 506.018L531.79 506.025Z" fill="#14C0C0"/>
<path d="M1125.35 531.757C1113.58 531.568 1105.95 526.509 1101.08 517.594C1096.39 509.002 1096.65 500.276 1102.15 491.93C1106.54 485.247 1112.07 479.67 1118.64 475.155C1129.56 467.65 1142.84 468.871 1151.9 478.096C1160.98 487.34 1162.24 500.636 1154.17 511.341C1146.55 521.458 1138.33 531.283 1125.35 531.757Z" fill="#14C0C0"/>
<path d="M504.323 1097.91C516.09 1098.1 523.715 1103.16 528.584 1112.07C533.275 1120.67 533.016 1129.39 527.522 1137.74C523.127 1144.42 517.595 1150 511.025 1154.51C500.106 1162.02 486.828 1160.8 477.767 1151.57C468.688 1142.33 467.43 1129.03 475.497 1118.33C483.123 1108.21 491.342 1098.38 504.323 1097.91Z" fill="#14C0C0"/>
</svg>
