<svg width="1630" height="1630" viewBox="0 0 1630 1630" fill="none" xmlns="http://www.w3.org/2000/svg">
<rect width="1630" height="1630" rx="815" fill="white"/>
<path d="M108.276 834.252C116.635 806.204 147.518 798.729 173.593 800.542C225.3 801.504 276.525 801.097 328.231 800.69C371.209 803.354 404.015 768.46 380.64 727.719C359.336 693.564 313.881 711.881 281.222 703.407C258.217 698.708 242.461 677.172 245.272 653.749C246.788 634.174 260.362 619.261 278.781 614.229C300.936 608.271 323.83 613.045 346.021 609.973C374.501 607.457 393.844 579.704 386.743 552.395C381.602 528.528 357.228 515.873 334.186 516.613C303.525 515.688 273.233 518.056 242.72 515.355C207.879 512.283 189.978 473.874 207.768 444.456C217.828 426.62 242.35 420.995 262.544 422.031C541.788 425.029 821.253 415.445 1100.2 427.73C1146.03 431.763 1183.6 462.514 1194.77 508.583C1197.03 520.757 1202.32 530.6 1215.93 530.341C1298.33 531.155 1375.41 524.088 1429.71 599.76C1462.55 646.459 1488.96 696.969 1512.44 749.07C1516.33 757.951 1519.73 767.165 1521.51 776.527C1525.28 795.806 1523.32 815.344 1520.21 834.623C1516.29 858.934 1512.37 883.245 1508.15 907.52C1498.39 961.545 1490.36 1019.83 1448.16 1059.64C1435.14 1072.08 1419.72 1080.33 1402.23 1083.62C1388.32 1086.84 1382.7 1080.1 1382.14 1066.82C1368.9 947.151 1237.6 914.291 1144.99 977.827C1110.67 1000.47 1086.29 1032.3 1072.2 1072.74C1069.54 1080.4 1066.62 1089.76 1058.66 1092.98C1053.49 1095.13 1047.01 1094.98 1041.24 1095.02C960.948 1094.8 880.652 1094.94 800.43 1094.83C793.587 1094.98 786.967 1092.39 785.487 1085.62C784.637 1006.21 726.162 944.93 646.421 945.745C573.374 947.114 504.062 993.96 478.024 1063.05C472.365 1079.07 463.341 1084.99 445.883 1084.18C397.728 1083.81 349.942 1083.99 301.86 1083.99C288.249 1084.06 272.974 1083.51 260.88 1077.14C239.243 1066.86 231.735 1039.03 240.834 1017.9C260.917 975.089 315.397 995.885 351.939 987.522C375.573 982.711 391.773 958.622 387.557 934.903C384.154 908.519 358.929 894.272 333.964 895.383C281.518 894.976 229.516 894.531 177.107 895.494C138.531 898.639 97.6983 880.396 108.128 835.03L108.313 834.364L108.276 834.252ZM1292.16 791.476C1325.89 791.476 1360.84 791.846 1394.9 791.439C1426.75 792.845 1447.39 773.011 1432.44 741.336C1420.94 717.136 1407.7 694.342 1393.76 671.547C1381.77 652.342 1369.42 631.805 1350.56 618.484C1320.16 595.69 1280.28 596.023 1244 596.208C1232.61 596.319 1221.29 596.356 1209.83 596.282C1203.28 596.208 1195.88 597.614 1193.66 604.682C1184.9 659.854 1179.68 715.915 1171.62 771.457C1168.59 789.552 1176.72 792.29 1193.07 791.55C1225.88 791.328 1258.68 791.476 1291.42 791.476H1292.12H1292.16ZM697.202 595.875C661.215 596.467 639.208 588.955 635.584 634.248C629.888 675.137 624.192 715.878 618.237 756.693C616.795 767.165 613.91 782.299 625.006 788.035C643.351 796.694 653.337 776.046 654.668 760.541C657.479 748.145 656.518 727.645 672.755 725.98C681.594 724.907 693.43 723.76 700.161 730.568C713.994 745.37 712.847 797.878 742.251 789.219C766.588 779.45 750.573 750.217 745.358 732.788C742.584 725.462 744.211 718.246 750.573 713.176C775.094 695.526 784.748 665.553 780.827 636.505C775.464 595.801 730.046 594.913 697.905 595.875H697.202ZM1002.26 790.662C1018.09 788.886 1056.63 796.916 1064.62 779.635C1067.95 772.715 1066.25 763.057 1058.89 759.579C1054.26 757.285 1048.68 757.026 1043.5 756.841C1026.12 756.138 1007.77 757.988 989.982 756.693C976.778 754.621 980.218 741.632 982.437 729.495C984.25 715.249 986.986 706.294 1003.45 707.034C1021.94 705.961 1061.55 714.028 1061.81 686.571C1058.66 667.033 1033.26 673.546 1018.87 672.25C1010.81 672.139 998.156 672.065 995.789 666.589C992.275 657.486 993.052 638.466 1002.48 633.249C1007 630.88 1012.58 630.88 1017.68 630.843C1034.14 631.102 1050.05 631.398 1066.36 630.436C1072.05 629.955 1078.08 628.771 1082.67 625.293C1091.92 618.854 1091.1 602.943 1080.08 598.909C1075.64 597.059 1070.17 596.763 1065.25 596.652C1043.46 596.541 1021.94 596.541 1000.19 596.615C977.148 595.949 963.241 601.203 960.32 626.218C953.958 675.137 944.823 723.389 940.495 772.308C940.051 786.296 952.553 790.551 964.277 790.625C976.778 791.069 989.982 790.773 1001.6 790.699H1002.3L1002.26 790.662ZM850.804 790.773C861.937 790.699 874.475 790.958 886.644 790.773C894.041 790.588 902.141 789.996 908.281 785.556C919.08 778.34 916.454 759.764 902.881 757.951C888.493 755.731 873.625 757.396 859.311 756.804C851.581 756.693 839.265 756.767 834.679 753.51C826.801 747.516 831.313 727.978 833.495 719.097C836.75 706.849 848.844 706.294 861.641 707.182C871.258 707.589 880.504 707.663 890.01 706.516C903.25 705.85 915.234 694.453 909.242 681.205C901.512 666.922 872.145 674.249 857.906 671.88C840.374 671.621 840.855 662.185 843.037 648.087C844.48 634.914 852.469 630.029 865.044 630.806C881.281 630.843 897.222 631.139 913.533 630.547C923.26 630.251 935.021 627.032 937.388 616.264C941.309 599.094 924.037 595.801 910.759 596.504C887.162 597.059 864.082 595.912 840.67 596.652C828.798 597.318 821.29 599.464 816.741 604.904C807.679 617.337 808.012 637.356 805.349 652.231C800.8 692.713 791.886 732.899 789.556 773.529C789.482 787.295 802.131 790.477 813.412 790.588C825.728 790.995 838.192 790.699 850.102 790.736H850.804V790.773ZM476.914 771.272C476.064 789.515 493.595 796.472 505.948 784.224C517.599 769.237 515.639 747.442 519.337 729.569C520.447 718.135 526.66 711.955 538.977 712.658C551.774 712.473 565.643 713.806 577.738 709.328C591.534 705.184 594.677 683.314 580.512 677.801C571.413 674.36 561.131 675.803 551.441 675.285C540.604 674.878 527.252 675.137 529.212 659.928C530.026 651.602 530.322 640.094 538.163 635.321C557.95 626.477 605.699 643.61 616.351 619.15C621.455 605.977 610.507 596.097 597.488 596.245C581.584 595.69 566.013 596.356 550.035 595.949C535.648 596.06 511.422 593.766 504.21 604.793C495.592 617.448 495.296 636.505 493.003 651.528C488.528 692.158 480.465 731.308 476.877 770.421V771.161L476.914 771.272Z" fill="#14C0C0"/>
<path d="M638.913 1000.36C702.602 999.918 743.767 1058.79 725.349 1118.77C708.113 1180.9 641.354 1223.05 579.735 1204.1C550.738 1195.26 528.214 1171.1 521.446 1141.49C504.58 1071.78 568.344 1000.03 638.173 1000.4H638.913V1000.36Z" fill="#14C0C0"/>
<path d="M1207.61 1208.62C1145.29 1209.1 1105.45 1152.89 1120.54 1094.02C1136 1018.61 1239.27 967.91 1300.26 1024.04C1321.08 1043.95 1330.7 1072.74 1327.37 1102.09C1321.01 1160.22 1266.53 1208.69 1208.35 1208.66H1207.61V1208.62Z" fill="#14C0C0"/>
<path d="M169.895 612.49C206.437 612.49 228.776 655.155 208.434 685.239C183.912 723.538 124.069 707.368 121.554 662.112C119.409 635.543 142.673 611.713 169.155 612.49H169.895Z" fill="#14C0C0"/>
<path d="M691.507 690.642C661.918 691.567 666.356 683.389 668.538 659.115C671.053 635.581 674.456 630.437 699.754 630.77C726.791 629.66 751.128 634.285 741.844 667.108C735.15 689.384 712.108 691.863 692.246 690.642H691.507Z" fill="#14C0C0"/>
</svg>
