<svg width="40" height="41" viewBox="0 0 40 41" fill="none" xmlns="http://www.w3.org/2000/svg">
<rect y="0.649902" width="40" height="40" rx="20" fill="#14C0C0"/>
<path d="M24.5861 10.6499H15.4138C12.4286 10.6499 10 13.0785 10 16.0637V25.2362C10 28.2212 12.4286 30.6499 15.4138 30.6499H24.5863C27.5713 30.6499 30 28.2212 30 25.2362V16.0637C30 13.0785 27.5713 10.6499 24.5861 10.6499ZM20 26.1185C16.9845 26.1185 14.5314 23.6653 14.5314 20.6499C14.5314 17.6344 16.9845 15.1813 20 15.1813C23.0154 15.1813 25.4686 17.6344 25.4686 20.6499C25.4686 23.6653 23.0154 26.1185 20 26.1185ZM25.5993 16.471C24.7082 16.471 23.9834 15.7462 23.9834 14.8551C23.9834 13.964 24.7082 13.239 25.5993 13.239C26.4904 13.239 27.2154 13.964 27.2154 14.8551C27.2154 15.7462 26.4904 16.471 25.5993 16.471Z" fill="white"/>
<path d="M19.9992 16.3535C17.6305 16.3535 15.7031 18.2807 15.7031 20.6496C15.7031 23.0184 17.6305 24.9458 19.9992 24.9458C22.3681 24.9458 24.2953 23.0184 24.2953 20.6496C24.2953 18.2807 22.3681 16.3535 19.9992 16.3535Z" fill="white"/>
<path d="M25.5997 14.4116C25.3552 14.4116 25.1562 14.6106 25.1562 14.855C25.1562 15.0995 25.3552 15.2985 25.5997 15.2985C25.8442 15.2985 26.0432 15.0996 26.0432 14.855C26.0432 14.6104 25.8442 14.4116 25.5997 14.4116Z" fill="white"/>
</svg>
