<svg width="40" height="41" viewBox="0 0 40 41" fill="none" xmlns="http://www.w3.org/2000/svg">
<rect y="0.649902" width="40" height="40" rx="20" fill="#14C0C0"/>
<path d="M28.5251 15.5867C27.9117 15.8584 27.2526 16.0426 26.5609 16.1251C27.2667 15.7017 27.8092 15.0317 28.0642 14.2334C27.4034 14.6251 26.6717 14.9101 25.8926 15.0634C25.2701 14.3984 24.3809 13.9834 23.3976 13.9834C21.5092 13.9834 19.9784 15.5142 19.9784 17.4026C19.9784 17.6709 20.0084 17.9317 20.0667 18.1817C17.2251 18.0392 14.7059 16.6784 13.0192 14.6092C12.7251 15.1142 12.5559 15.7017 12.5559 16.3284C12.5559 17.5151 13.1592 18.5609 14.0767 19.1742C13.5159 19.1567 12.9892 19.0026 12.5276 18.7467C12.5276 18.7609 12.5276 18.7751 12.5276 18.7901C12.5276 20.4467 13.7059 21.8292 15.2709 22.1426C14.9842 22.2209 14.6817 22.2626 14.3701 22.2626C14.1501 22.2626 13.9359 22.2409 13.7267 22.2009C14.1617 23.5592 15.4251 24.5476 16.9209 24.5759C15.7509 25.4926 14.2759 26.0392 12.6742 26.0392C12.3984 26.0392 12.1259 26.0234 11.8584 25.9917C13.3717 26.9617 15.1692 27.5276 17.1001 27.5276C23.3892 27.5276 26.8292 22.3176 26.8292 17.7984C26.8292 17.6501 26.8259 17.5026 26.8192 17.3559C27.4876 16.8751 28.0667 16.2726 28.5251 15.5867Z" fill="white"/>
</svg>
