<svg width="22" height="18" viewBox="0 0 22 18" fill="none" xmlns="http://www.w3.org/2000/svg">
<path d="M2.11111 2.14286L8.89737 7.41402L8.89964 7.41595C9.65317 7.98433 10.0302 8.26868 10.4431 8.37853C10.808 8.47563 11.1917 8.47563 11.5566 8.37853C11.9699 8.26858 12.348 7.9834 13.1029 7.41402C13.1029 7.41402 17.4556 3.97822 19.8889 2.14286M1 13.3431V4.65737C1 3.37725 1 2.73671 1.24221 2.24777C1.45526 1.81768 1.79497 1.46827 2.21311 1.24913C2.68847 1 3.31121 1 4.55577 1H17.4447C18.6892 1 19.3106 1 19.786 1.24913C20.2041 1.46827 20.545 1.81768 20.758 2.24777C21 2.73623 21 3.37599 21 4.65361V13.3469C21 14.6246 21 15.2634 20.758 15.7519C20.545 16.182 20.2041 16.532 19.786 16.7511C19.3111 17 18.69 17 17.4479 17H4.55212C3.30999 17 2.688 17 2.21311 16.7511C1.79497 16.532 1.45526 16.182 1.24221 15.7519C1 15.2629 1 14.6232 1 13.3431Z" stroke="white" stroke-width="2" stroke-linecap="round" stroke-linejoin="round"/>
</svg>
