<svg width="18" height="15" viewBox="0 0 18 15" fill="none" xmlns="http://www.w3.org/2000/svg">
<path d="M1.27637 7.12167C1.27637 6.84553 1.50022 6.62167 1.77637 6.62167H15.0249L9.84826 1.39052C9.65402 1.19423 9.65568 0.877656 9.85196 0.683419C10.0482 0.489182 10.3648 0.490839 10.5591 0.687121L16.5781 6.76951L1.27637 7.12167ZM1.27637 7.12167C1.27637 7.39782 1.50022 7.62167 1.77637 7.62167H15.0249M1.27637 7.12167L15.0249 7.62167M15.0249 7.62167L9.84826 12.8528C9.65402 13.0491 9.65568 13.3657 9.85196 13.5599C10.0482 13.7542 10.3648 13.7525 10.5591 13.5562L16.5781 7.47384L15.0249 7.62167ZM16.7231 7.11713C16.7231 7.11852 16.7231 7.12029 16.7231 7.12167L16.7231 7.11713ZM16.7231 7.11713C16.7231 7.10994 16.7229 7.10313 16.7225 7.09594M16.7231 7.11713L16.7225 7.09594M16.7225 7.09594C16.7196 7.03998 16.7074 6.9844 16.6858 6.93174M16.7225 7.09594L16.6858 6.93174M16.6858 6.93174C16.6855 6.93094 16.685 6.92987 16.6847 6.92907M16.6858 6.93174L16.6847 6.92907M16.6847 6.92907C16.6606 6.87123 16.6253 6.81725 16.5785 6.76998L16.6847 6.92907Z" stroke="white" stroke-linecap="round" stroke-linejoin="round"/>
</svg>
