<?xml version="1.0" encoding="UTF-8"?>
<svg id="Layer_2" data-name="Layer 2" xmlns="http://www.w3.org/2000/svg" viewBox="0 0 254.09 254.09">
  <defs>
    <style>
      .cls-1 {
        fill: #14c0c0;
      }

      .cls-1, .cls-2 {
        stroke-width: 0px;
      }

      .cls-2 {
        fill: #fff;
      }
    </style>
  </defs>
  <g id="Layer_1-2" data-name="Layer 1">
    <path class="cls-2" d="M243.23,96.03c-1.31-3.93-5.68-7.43-10.05-11.36-3.93-3.49-8.74-7.43-11.36-12.23-2.62-4.8-3.49-10.48-4.37-15.72-1.31-6.11-2.18-11.79-5.24-14.85-3.06-3.06-8.74-4.37-14.85-5.24-5.68-.87-10.92-1.75-15.72-4.37-4.8-2.62-8.74-6.99-12.23-11.36-3.93-4.8-7.43-9.17-11.36-10.05-3.93-.87-9.17.87-14.85,3.06-5.24,1.75-10.48,3.93-16.16,3.93s-10.92-2.18-16.16-3.93c-5.68-2.18-10.92-3.93-14.85-3.06-3.93,1.31-7.43,5.68-11.36,10.05-3.49,3.93-7.43,8.74-12.23,11.36s-10.48,3.49-15.72,4.37c-6.11,1.31-11.79,2.18-14.85,5.24-3.06,3.06-4.37,8.74-5.24,14.85-.87,5.68-1.75,10.92-4.37,15.72s-6.99,8.74-11.36,12.23c-4.8,3.93-9.17,7.43-10.05,11.36-.87,3.93.87,9.17,3.06,14.85,1.75,5.24,3.93,10.48,3.93,16.16s-2.18,10.92-3.93,16.16c-2.18,5.68-3.93,10.92-3.06,14.85,1.31,3.93,5.68,7.43,10.05,11.36,2.18,1.75,4.37,3.49,6.55,5.68,1.75,2.18,3.49,4.37,4.8,6.55,2.62,4.8,3.49,10.48,4.37,15.72,1.31,6.11,2.18,11.79,5.24,14.85,3.06,3.06,8.74,4.37,14.85,5.24,5.68.87,10.92,1.75,15.72,4.37,4.8,2.62,8.74,6.99,12.23,11.36,3.93,4.8,7.43,9.17,11.36,10.05,3.93.87,9.17-.87,14.85-3.06,5.24-1.75,10.48-3.93,16.16-3.93s10.92,2.18,16.16,3.49c5.68,2.18,10.92,3.93,14.85,3.06,3.93-1.31,7.43-5.68,11.36-10.05,3.49-3.93,7.43-8.74,12.23-11.36,4.8-2.62,10.48-3.49,15.72-4.37,5.68-.87,11.36-1.75,14.85-4.8,3.06-3.06,4.37-8.74,5.24-14.85.87-5.68,1.75-10.92,4.37-15.72,2.62-4.8,6.99-8.74,11.36-12.23,4.8-3.93,9.17-7.43,10.05-11.36.87-3.93-.87-9.17-3.06-14.85-1.75-5.24-3.93-10.48-3.93-16.16s2.18-10.92,3.93-16.16c2.18-5.68,3.93-10.92,3.06-14.85Z"/>
    <path class="cls-1" d="M247.16,127.04c0-3.49,1.75-7.86,3.06-12.23,2.62-6.55,5.24-13.98,3.06-21.4-1.75-7.43-7.86-12.23-13.54-17.03-3.93-3.06-7.43-6.11-9.17-9.17s-2.62-7.43-3.06-11.79c-1.31-6.99-2.62-14.85-8.3-20.53-5.68-5.68-13.54-6.99-20.53-8.3-4.8-.87-9.17-1.75-11.79-3.06-3.06-1.75-6.11-5.24-9.17-9.17-4.8-5.68-9.61-11.36-17.03-13.54-7.43-2.18-14.85.87-21.4,3.06-4.37,1.75-8.74,3.06-12.23,3.06s-7.86-1.75-12.23-3.06c-6.55-2.62-13.98-5.24-21.4-3.06-7.43,1.75-12.23,7.86-17.03,13.54-3.06,3.93-6.11,7.43-9.17,9.17s-7.43,2.62-11.79,3.06c-6.99,1.31-14.85,2.62-20.53,8.3-5.68,5.68-6.99,13.54-8.3,20.53-.87,4.8-1.75,9.17-3.06,11.79-1.75,3.06-5.24,6.11-9.17,9.17-5.68,4.8-11.36,9.61-13.54,17.03-2.18,7.43.87,14.85,3.06,21.4,1.75,4.37,3.06,8.74,3.06,12.23s-1.75,7.86-3.06,12.23c-2.62,6.55-5.24,13.98-3.06,21.4,1.75,7.43,7.86,12.23,13.54,17.03,3.93,3.06,7.43,6.11,9.17,9.17s2.62,7.43,3.06,11.79c1.31,6.99,2.62,14.85,8.3,20.53,5.68,5.68,13.54,6.99,20.53,8.3,4.8.87,9.17,1.75,11.79,3.06,3.06,1.75,6.11,5.24,9.17,9.17,4.8,5.68,9.61,11.36,17.03,13.54,7.43,2.18,14.85-.87,21.4-3.06,4.37-1.75,8.74-3.06,12.23-3.06s7.86,1.75,12.23,3.06c6.55,2.62,13.98,5.24,21.4,3.06,7.43-1.75,12.23-7.86,17.03-13.54,3.06-3.93,6.11-7.43,9.17-9.17,2.62-1.75,6.99-2.18,11.79-3.06,6.99-1.31,14.85-2.62,20.53-8.3,5.68-5.68,6.99-13.54,8.3-20.53.87-4.8,1.75-9.17,3.06-11.79,1.75-3.06,5.24-6.11,9.17-9.17,5.68-4.8,11.36-9.61,13.54-17.03,2.18-7.43-.87-14.85-3.06-21.4-1.75-4.37-3.06-8.74-3.06-12.23ZM239.73,142.77c2.18,5.68,3.93,10.92,3.06,14.85-.87,3.93-5.24,7.43-10.05,11.36-4.37,3.49-8.74,7.43-11.36,12.23-2.62,4.8-3.49,10.05-4.37,15.72-.87,6.11-2.18,11.79-5.24,14.85-3.49,3.06-9.17,3.93-14.85,4.8-5.24.87-10.92,1.75-15.72,4.37-4.8,2.62-8.74,7.43-12.23,11.36-3.93,4.37-7.43,8.74-11.36,10.05-3.93.87-9.17-.87-14.85-3.06-5.24-1.31-10.48-3.49-16.16-3.49s-10.92,2.18-16.16,3.93c-5.68,2.18-10.92,3.93-14.85,3.06-3.93-.87-7.43-5.24-11.36-10.05-3.49-4.37-7.43-8.74-12.23-11.36-4.8-2.62-10.05-3.49-15.72-4.37-6.11-.87-11.79-2.18-14.85-5.24-3.06-3.06-3.93-8.74-5.24-14.85-.87-5.24-1.75-10.92-4.37-15.72-1.31-2.18-3.06-4.37-4.8-6.55-2.18-2.18-4.37-3.93-6.55-5.68-4.37-3.93-8.74-7.43-10.05-11.36-.87-3.93.87-9.17,3.06-14.85,1.75-5.24,3.93-10.48,3.93-16.16s-2.18-10.92-3.93-16.16c-2.18-5.68-3.93-10.92-3.06-14.85.87-3.93,5.24-7.43,10.05-11.36,4.37-3.49,8.74-7.43,11.36-12.23s3.49-10.05,4.37-15.72c.87-6.11,2.18-11.79,5.24-14.85,3.06-3.06,8.74-3.93,14.85-5.24,5.24-.87,10.92-1.75,15.72-4.37s8.74-7.43,12.23-11.36c3.93-4.37,7.43-8.74,11.36-10.05,3.93-.87,9.17.87,14.85,3.06,5.24,1.75,10.48,3.93,16.16,3.93s10.92-2.18,16.16-3.93c5.68-2.18,10.92-3.93,14.85-3.06,3.93.87,7.43,5.24,11.36,10.05,3.49,4.37,7.43,8.74,12.23,11.36,4.8,2.62,10.05,3.49,15.72,4.37,6.11.87,11.79,2.18,14.85,5.24,3.06,3.06,3.93,8.74,5.24,14.85.87,5.24,1.75,10.92,4.37,15.72,2.62,4.8,7.43,8.74,11.36,12.23,4.37,3.93,8.74,7.43,10.05,11.36.87,3.93-.87,9.17-3.06,14.85-1.75,5.24-3.93,10.48-3.93,16.16s2.18,10.92,3.93,16.16Z"/>
    <path class="cls-1" d="M73.67,125.52c-3.06-3.06-7.42-4.8-11.79-4.8-3.06,0-5.68-2.62-5.68-5.68,0-1.31.44-2.62,1.75-3.93.87-.87,2.18-1.75,3.93-1.75h10.92c3.06,0,5.68-2.62,5.24-5.24,0-3.06-2.62-5.24-5.24-5.24h-10.92c-4.37,0-8.3,1.75-11.79,4.8-3.06,3.06-4.8,7.42-4.8,11.79,0,9.17,7.42,16.6,16.6,16.6,1.31,0,2.62.44,3.93,1.75.87.87,1.75,2.18,1.75,3.93,0,3.06-2.62,5.68-5.24,5.24h-10.92c-3.06,0-5.24,2.62-5.24,5.24,0,1.31.44,3.06,1.75,3.93.87.87,2.18,1.75,3.93,1.75h10.05c9.17,0,16.16-7.42,16.16-16.16.44-4.8-1.31-8.74-4.37-12.23Z"/>
    <path class="cls-1" d="M121.28,115.47c0-9.17-6.99-16.6-15.72-16.16-4.37,0-8.3,1.75-11.79,4.8-3.06,3.06-4.8,7.42-4.8,11.79v32.76c0,1.31.44,3.06,1.75,3.93.87.87,2.18,1.75,3.93,1.75,3.06,0,5.24-2.62,5.24-5.24v-5.68h10.92v5.24c0,3.06,2.62,5.68,5.24,5.24,3.06,0,5.24-2.62,5.24-5.24v-33.19ZM100.32,132.07v-16.6c0-1.31.44-2.62,1.75-3.93.87-.87,2.18-1.75,3.93-1.75,3.06,0,5.68,2.62,5.24,5.24v16.16l-10.92.87Z"/>
    <path class="cls-1" d="M160.15,142.55h-16.16v-38c0-3.06-2.62-5.68-5.24-5.24-3.06,0-5.24,2.62-5.24,5.24v43.68c0,1.31.44,3.06,1.75,3.93.87.87,2.18,1.75,3.93,1.75h21.84c3.06,0,5.24-2.62,5.24-5.24-.87-3.49-3.06-6.11-6.11-6.11Z"/>
    <path class="cls-1" d="M203.83,142.99h-16.6v-10.92h10.92c3.06,0,5.68-2.62,5.24-5.24,0-3.06-2.62-5.24-5.24-5.24h-10.92v-10.92h16.16c3.06,0,5.68-2.62,5.24-5.24,0-3.06-2.62-5.24-5.24-5.24h-21.84c-1.31,0-2.62.44-3.93,1.75-.87.87-1.75,2.62-1.75,3.93v43.68c0,1.31.44,2.62,1.75,3.93.87.87,2.62,1.75,3.93,1.75h21.84c3.06,0,5.24-2.62,5.24-5.24.87-4.8-1.75-6.99-4.8-6.99Z"/>
  </g>
</svg>