<svg width="20" height="20" viewBox="0 0 20 20" fill="none" xmlns="http://www.w3.org/2000/svg">
<path fill-rule="evenodd" clip-rule="evenodd" d="M20 4.63904C20 -0.159063 12.2737 0.000621932 9.56691 0.000621932C6.85761 0.000621932 0 0.0584608 0 4.85782H4.92131C4.92131 4.82387 4.92635 3.35653 4.92635 3.65452C4.92635 3.1038 5.5294 2.36321 6.88153 2.36321H13.1927C14.5096 2.36321 15.1278 3.1038 15.1278 3.65452C15.1278 3.84816 15.1379 4.8201 15.1379 4.85782H19.9975C19.9975 4.84147 20 4.65413 20 4.63904Z" fill="white"/>
<path fill-rule="evenodd" clip-rule="evenodd" d="M6.23057 11.6292C6.23057 12.058 5.8705 12.405 5.42735 12.405H4.54984C4.10543 12.405 3.74536 12.058 3.74536 11.6292V10.7792C3.74536 10.3504 4.10543 10.0034 4.54984 10.0034H5.42735C5.8705 10.0034 6.23057 10.3504 6.23057 10.7792V11.6292Z" fill="white"/>
<path fill-rule="evenodd" clip-rule="evenodd" d="M16.2874 11.6371C16.2874 12.0809 15.9286 12.4393 15.4829 12.4393H14.6067C14.1623 12.4393 13.8035 12.0809 13.8035 11.6371V10.7607C13.8035 10.3168 14.1623 9.9585 14.6067 9.9585H15.4829C15.9286 9.9585 16.2874 10.3168 16.2874 10.7607V11.6371Z" fill="white"/>
<path fill-rule="evenodd" clip-rule="evenodd" d="M11.2652 11.6424C11.2652 12.0863 10.9064 12.4446 10.462 12.4446H9.58321C9.14006 12.4446 8.78125 12.0863 8.78125 11.6424V10.7661C8.78125 10.3222 9.14006 9.96387 9.58321 9.96387H10.462C10.9064 9.96387 11.2652 10.3222 11.2652 10.7661V11.6424Z" fill="white"/>
<path fill-rule="evenodd" clip-rule="evenodd" d="M6.19911 15.3981C6.19911 15.842 5.84534 16.2003 5.40848 16.2003H4.54482C4.1067 16.2003 3.75293 15.842 3.75293 15.3981V14.5217C3.75293 14.0766 4.1067 13.7183 4.54482 13.7183H5.40848C5.84534 13.7183 6.19911 14.0766 6.19911 14.5217V15.3981Z" fill="white"/>
<path fill-rule="evenodd" clip-rule="evenodd" d="M16.2472 15.4112C16.2472 15.8488 15.9009 16.2009 15.4704 16.2009H14.6193C14.1887 16.2009 13.8425 15.8488 13.8425 15.4112V14.5487C13.8425 14.1099 14.1887 13.7578 14.6193 13.7578H15.4704C15.9009 13.7578 16.2472 14.1099 16.2472 14.5487V15.4112Z" fill="white"/>
<path fill-rule="evenodd" clip-rule="evenodd" d="M11.2603 15.4112C11.2603 15.8488 10.9027 16.2009 10.4583 16.2009H9.58081C9.13639 16.2009 8.77759 15.8488 8.77759 15.4112V14.5487C8.77759 14.1099 9.13639 13.7578 9.58081 13.7578H10.4583C10.9027 13.7578 11.2603 14.1099 11.2603 14.5487V15.4112Z" fill="white"/>
<path fill-rule="evenodd" clip-rule="evenodd" d="M6.23814 19.1844C6.23814 19.6144 5.87807 19.9614 5.43491 19.9614H4.55741C4.113 19.9614 3.75293 19.6144 3.75293 19.1844V18.3344C3.75293 17.9056 4.113 17.5586 4.55741 17.5586H5.43491C5.87807 17.5586 6.23814 17.9056 6.23814 18.3344V19.1844Z" fill="white"/>
<path fill-rule="evenodd" clip-rule="evenodd" d="M16.2874 19.1966C16.2874 19.6418 15.9286 20.0001 15.4829 20.0001H14.6067C14.1623 20.0001 13.8035 19.6418 13.8035 19.1966V18.3203C13.8035 17.8764 14.1623 17.5181 14.6067 17.5181H15.4829C15.9286 17.5181 16.2874 17.8764 16.2874 18.3203V19.1966Z" fill="white"/>
<path fill-rule="evenodd" clip-rule="evenodd" d="M11.2603 19.1966C11.2603 19.6418 10.909 20.0001 10.4709 20.0001H9.60725C9.16912 20.0001 8.81787 19.6418 8.81787 19.1966V18.3203C8.81787 17.8764 9.16912 17.5181 9.60725 17.5181H10.4709C10.909 17.5181 11.2603 17.8764 11.2603 18.3203V19.1966Z" fill="white"/>
<path fill-rule="evenodd" clip-rule="evenodd" d="M1.20117 7.39773H3.77828C3.77828 7.39773 4.66837 7.68441 4.89499 6.17432H0.0366211C0.246869 7.57376 1.20117 7.39773 1.20117 7.39773Z" fill="white"/>
<path fill-rule="evenodd" clip-rule="evenodd" d="M15.2046 6.17432C15.4677 7.49832 16.417 7.39773 16.417 7.39773H18.7977C18.7977 7.39773 19.752 7.41156 19.9849 6.17432H15.2046Z" fill="white"/>
</svg>
