<svg width="1920" height="515" viewBox="0 0 1920 515" fill="none" xmlns="http://www.w3.org/2000/svg">
<g filter="url(#filter0_b_418_1009)">
<mask id="path-1-inside-1_418_1009" fill="white">
<path fill-rule="evenodd" clip-rule="evenodd" d="M1464.67 123.154C1582.8 116.335 1668.53 95.3679 1713.87 82.6455C1787.07 62.086 1856.27 34.2998 1920 0V187.275V514.84H0V187.275V109.719C38.6667 95.877 79.8667 86.7167 122.133 82.6455C215.554 73.8776 286.986 93.4728 340.921 108.268C352.725 111.506 363.691 114.515 373.867 116.945C465.567 138.796 522.056 120.798 593.996 97.8766C653.749 78.8383 724.162 56.4035 834.267 50.5847C960.644 43.9098 1039.97 64.3599 1122.08 85.5301C1211.51 108.584 1304.25 132.492 1464.67 123.154Z"/>
</mask>
<path fill-rule="evenodd" clip-rule="evenodd" d="M1464.67 123.154C1582.8 116.335 1668.53 95.3679 1713.87 82.6455C1787.07 62.086 1856.27 34.2998 1920 0V187.275V514.84H0V187.275V109.719C38.6667 95.877 79.8667 86.7167 122.133 82.6455C215.554 73.8776 286.986 93.4728 340.921 108.268C352.725 111.506 363.691 114.515 373.867 116.945C465.567 138.796 522.056 120.798 593.996 97.8766C653.749 78.8383 724.162 56.4035 834.267 50.5847C960.644 43.9098 1039.97 64.3599 1122.08 85.5301C1211.51 108.584 1304.25 132.492 1464.67 123.154Z" fill="url(#paint0_linear_418_1009)"/>
<path d="M1713.87 82.6455L1714.14 83.6083L1714.14 83.6082L1713.87 82.6455ZM1464.67 123.154L1464.61 122.156L1464.61 122.156L1464.67 123.154ZM1920 0H1921V-1.6738L1919.53 -0.880576L1920 0ZM1920 514.84V515.84H1921V514.84H1920ZM0 514.84H-1V515.84H0V514.84ZM0 109.719L-0.337038 108.778L-1 109.015V109.719H0ZM122.133 82.6455L122.04 81.6498L122.037 81.6501L122.133 82.6455ZM340.921 108.268L341.185 107.304L341.185 107.304L340.921 108.268ZM373.867 116.945L373.634 117.918L373.635 117.918L373.867 116.945ZM593.996 97.8766L594.299 98.8294L594.299 98.8294L593.996 97.8766ZM834.267 50.5847L834.214 49.5861L834.214 49.5861L834.267 50.5847ZM1122.08 85.5301L1121.83 86.4985L1121.83 86.4985L1122.08 85.5301ZM1713.6 81.6827C1668.31 94.3918 1582.65 115.342 1464.61 122.156L1464.72 124.152C1582.95 117.328 1668.76 96.344 1714.14 83.6083L1713.6 81.6827ZM1919.53 -0.880576C1855.86 33.383 1786.73 61.1422 1713.6 81.6827L1714.14 83.6082C1787.4 63.0297 1856.67 35.2166 1920.47 0.880576L1919.53 -0.880576ZM1921 187.275V0H1919V187.275H1921ZM1919 187.275V514.84H1921V187.275H1919ZM1920 513.84H0V515.84H1920V513.84ZM1 514.84V187.275H-1V514.84H1ZM-1 109.719V187.275H1V109.719H-1ZM122.037 81.6501C79.6906 85.729 38.4095 94.9069 -0.337038 108.778L0.337038 110.661C38.9239 96.847 80.0427 87.7043 122.229 83.6409L122.037 81.6501ZM341.185 107.304C287.238 92.5051 215.655 72.8637 122.04 81.6498L122.227 83.6411C215.453 74.8914 286.733 94.4405 340.656 109.233L341.185 107.304ZM374.099 115.973C363.943 113.547 352.994 110.543 341.185 107.304L340.656 109.233C352.457 112.47 363.44 115.483 373.634 117.918L374.099 115.973ZM593.692 96.9238C521.777 119.837 465.516 137.756 374.098 115.973L373.635 117.918C465.619 139.836 522.334 121.759 594.299 98.8294L593.692 96.9238ZM834.214 49.5861C723.978 55.4118 653.467 77.8785 593.692 96.9238L594.299 98.8294C654.03 79.798 724.345 57.3952 834.319 51.5833L834.214 49.5861ZM1122.33 84.5618C1040.19 63.3857 960.749 42.9029 834.214 49.5861L834.319 51.5833C960.538 44.9168 1039.74 65.3342 1121.83 86.4985L1122.33 84.5618ZM1464.61 122.156C1304.34 131.485 1211.72 107.607 1122.33 84.5618L1121.83 86.4985C1211.3 109.562 1304.15 133.499 1464.72 124.152L1464.61 122.156Z" fill="url(#paint1_linear_418_1009)" mask="url(#path-1-inside-1_418_1009)"/>
</g>
<defs>
<filter id="filter0_b_418_1009" x="-62" y="-62" width="2044" height="638.84" filterUnits="userSpaceOnUse" color-interpolation-filters="sRGB">
<feFlood flood-opacity="0" result="BackgroundImageFix"/>
<feGaussianBlur in="BackgroundImageFix" stdDeviation="31"/>
<feComposite in2="SourceAlpha" operator="in" result="effect1_backgroundBlur_418_1009"/>
<feBlend mode="normal" in="SourceGraphic" in2="effect1_backgroundBlur_418_1009" result="shape"/>
</filter>
<linearGradient id="paint0_linear_418_1009" x1="-2.11701e-05" y1="105.887" x2="1824.28" y2="775.673" gradientUnits="userSpaceOnUse">
<stop stop-color="#559A9A" stop-opacity="0.2"/>
<stop offset="1" stop-color="#559A9A" stop-opacity="0.08"/>
</linearGradient>
<linearGradient id="paint1_linear_418_1009" x1="-9.39643e-06" y1="110.077" x2="1826" y2="773.629" gradientUnits="userSpaceOnUse">
<stop stop-color="#559A9A" stop-opacity="0.2"/>
<stop offset="0.53" stop-color="#559A9A" stop-opacity="0.08"/>
</linearGradient>
</defs>
</svg>
