<svg width="22" height="22" viewBox="0 0 22 22" fill="none" xmlns="http://www.w3.org/2000/svg">
<path d="M4.75 8.80978C5.33928 8.77778 6.06574 8.77778 7 8.77778H15C15.9342 8.77778 16.6607 8.77778 17.25 8.80978M4.75 8.80978C4.0146 8.84967 3.49286 8.93944 3.04754 9.14111C2.34192 9.46067 1.76825 9.97056 1.40873 10.5978C1 11.3109 1 12.2442 1 14.1111V15.6667C1 17.5336 1 18.4669 1.40873 19.18C1.76825 19.8072 2.34192 20.3171 3.04754 20.6367C3.8497 21 4.8998 21 7 21H15C17.1002 21 18.1502 21 18.9525 20.6367C19.6581 20.3171 20.2318 19.8072 20.5913 19.18C21 18.4669 21 17.5336 21 15.6667V14.1111C21 12.2442 21 11.3109 20.5913 10.5978C20.2318 9.97056 19.6581 9.46067 18.9525 9.14111C18.5071 8.93944 17.9854 8.84967 17.25 8.80978M4.75 8.80978V6.55556C4.75 3.48731 7.54822 1 11 1C14.4517 1 17.25 3.48731 17.25 6.55556V8.80978" stroke="white" stroke-width="2" stroke-linecap="round" stroke-linejoin="round"/>
</svg>
