<svg width="301" height="129" viewBox="0 0 301 129" fill="none"
    xmlns="http://www.w3.org/2000/svg">
    <path d="M80.8023 72.7369C80.8023 79.3477 80.8824 85.9486 80.7822 92.5595C80.5318 108.726 70.5053 122.028 54.9096 126.295C41.9282 129.841 29.7181 127.768 18.76 119.744C14.6332 116.729 11.1976 113.013 8.81365 108.396C8.35289 107.504 8.34287 107.013 9.16422 106.432C11.9688 104.459 14.7735 102.476 17.528 100.432C18.6599 99.5911 18.73 100.623 19.0104 101.174C21.3343 105.691 24.5997 109.357 28.9969 111.901C37.6512 116.9 51.3538 116.96 59.3369 110.599C66.078 105.22 68.522 98.0686 68.1815 89.7048C68.1214 88.2825 67.4102 88.9736 66.8693 89.2741C63.2133 91.2974 59.3569 92.8099 55.2702 93.6413C49.9915 94.7231 44.7228 94.9134 39.3339 94.1321C31.461 93.0002 24.3993 90.1255 18.1691 85.2575C9.09411 78.1558 3.13429 68.9105 1.25118 57.5719C-1.47331 41.0747 3.13428 26.6509 15.4646 15.182C24.9102 6.39753 36.2889 2.67139 49.2403 3.77321C62.0914 4.86501 72.5387 10.3741 80.5719 20.4307C83.5168 24.1167 83.4166 24.1969 79.7305 27.1117C78.0978 28.4038 76.365 29.6058 74.8525 31.0281C73.7807 32.0398 73.2999 31.8094 72.5988 30.6976C69.123 25.2185 64.3452 21.262 58.4154 18.6477C42.429 11.6161 23.618 18.6477 16.4763 34.5639C10.877 47.0445 11.9288 59.2246 20.3326 70.0023C27.9552 79.7785 38.4425 83.6849 50.883 81.8819C56.9329 81.0005 62.0514 78.296 66.5488 74.2594C67.7107 73.2176 68.3518 72.0958 68.2416 70.4431C68.0813 68.1393 68.1013 65.8054 68.2115 63.5016C68.2816 61.9691 67.8509 61.4483 66.2483 61.4783C59.9279 61.5885 53.5974 61.5684 47.267 61.5584C44.8731 61.5584 44.8731 61.5184 44.8631 59.0844C44.8631 56.43 44.8831 53.7756 44.833 51.1212C44.813 50.0995 44.9933 49.6087 46.2153 49.6188C57.2835 49.6588 68.3518 49.6588 79.43 49.6188C80.5419 49.6188 80.8724 49.9293 80.8624 51.0511C80.8123 58.283 80.8423 65.5049 80.8423 72.7369H80.8023Z" fill="white" stroke="white" stroke-miterlimit="10"/>
    <path d="M138.067 85.9184C135.623 88.1822 133.119 89.9651 130.124 90.9167C124.184 92.7898 118.495 92.4993 113.827 87.8917C110.091 84.2056 109.33 79.4778 110.662 74.5898C112.094 69.3111 116.291 66.9171 121.299 65.9455C126.328 64.9739 131.386 65.1242 136.324 66.7368C137.296 67.0573 137.686 67.0574 137.536 65.7252C136.705 58.4331 131.446 57.6919 126.297 58.1727C122.952 58.4832 119.837 59.6051 116.952 61.3279C116.241 61.7486 115.88 61.989 115.62 60.8772C115.049 58.4231 114.398 55.9891 113.627 53.5952C113.166 52.1728 113.817 51.7221 114.959 51.2713C118.104 50.0193 121.349 49.1078 124.705 48.7572C130.494 48.1462 136.174 48.4767 141.402 51.4116C147.362 54.7571 149.726 60.2161 149.866 66.7268C150.027 74.2893 149.916 81.8517 149.966 89.4142C149.966 90.2756 149.776 90.6562 148.875 90.6462C145.709 90.6262 142.554 90.5961 139.389 90.6663C138.257 90.6963 138.047 90.1855 138.077 89.2439C138.117 88.1321 138.077 87.0303 138.077 85.9184H138.067ZM130.705 72.9871C128.561 72.8269 126.398 73.0773 124.384 74.0889C122.511 75.0305 121.409 77.0238 121.62 78.9069C121.85 80.9703 123.293 82.5829 125.416 83.1238C126.508 83.4043 127.61 83.5145 128.741 83.4744C133.459 83.2841 136.935 80.4194 137.927 75.8418C138.197 74.5998 138.127 73.7584 136.454 73.528C134.561 73.2676 132.698 72.887 130.695 72.9871H130.705Z" fill="white" stroke="white" stroke-miterlimit="10"/>
    <path d="M245.634 73.3378C241.056 73.3378 236.489 73.3778 231.911 73.3177C230.649 73.2977 230.399 73.5982 230.709 74.8503C232.262 81.0104 238.362 82.1423 242.759 81.361C244.963 80.9704 246.886 79.9086 248.469 78.326C249.1 77.705 249.601 77.5147 250.312 78.1858C252.205 79.9587 254.128 81.7016 256.061 83.4244C256.712 84.0054 256.712 84.4461 256.061 85.0771C251.323 89.6847 245.734 92.3291 239.063 91.9184C225.811 91.087 217.067 80.6498 218.569 67.4381C219.431 59.9157 223.017 54.066 229.858 50.7305C240.686 45.4518 256.322 49.218 259.817 64.2228C260.388 66.6768 260.729 69.1909 260.719 71.7452C260.719 72.887 260.398 73.3378 259.176 73.3177C254.659 73.2576 250.141 73.2877 245.624 73.2877V73.3278L245.634 73.3378ZM239.434 65.5049C241.918 65.5049 244.402 65.4548 246.886 65.5249C248.138 65.555 248.258 65.1443 247.928 64.0324C246.896 60.6168 243.39 58.1427 239.494 58.2229C235.487 58.303 231.781 61.0075 230.91 64.4331C230.689 65.2945 230.97 65.5149 231.801 65.5049C234.345 65.4648 236.88 65.4949 239.424 65.5049H239.434Z" fill="white" stroke="white" stroke-miterlimit="10"/>
    <path d="M101.146 51.2913C101.146 63.822 101.126 76.3626 101.176 88.8933C101.176 90.2455 100.915 90.7563 99.4328 90.6962C96.498 90.576 93.5632 90.6261 90.6283 90.7263C89.3462 90.7664 89.0357 90.3557 89.0357 89.1036C89.0357 71.3143 88.9856 53.525 88.9355 35.7357C88.9155 28.3335 88.9456 20.9413 88.8554 13.5491C88.8354 12.1969 89.2561 11.9364 90.4681 11.9665C93.5131 12.0266 96.5681 12.0266 99.6131 11.9465C100.705 11.9164 101.035 12.1768 101.035 13.3388C100.985 25.9896 101.005 38.6405 101.005 51.2813H101.146V51.2913Z" fill="white" stroke="white" stroke-miterlimit="10"/>
    <path d="M177.402 91.9583C166.794 91.9383 157.619 84.7665 155.806 74.4595C153.392 60.817 162.387 50.4399 174.216 48.9074C181.689 47.9358 188.059 50.1094 193.418 55.3881C194.289 56.2495 194.42 56.7703 193.438 57.6618C191.515 59.4047 189.702 61.2577 187.889 63.1108C187.047 63.9722 186.507 64.0123 185.585 63.0807C180.927 58.413 174.006 58.4832 169.689 63.1408C164.37 68.8803 167.055 78.8067 174.617 80.85C178.854 82.0019 182.64 80.7098 185.725 77.6347C186.567 76.7933 187.047 76.7633 187.889 77.5947C189.732 79.4177 191.665 81.1605 193.588 82.8934C194.219 83.4643 194.239 83.855 193.658 84.5261C189.772 89.0335 183.432 91.9583 177.412 91.9483L177.402 91.9583Z" fill="white" stroke="white" stroke-miterlimit="10"/>
    <path d="M278.718 57.4015C280.792 54.1662 283.486 51.7322 287.303 50.8307C290.598 50.0494 293.883 50.3799 297.169 50.9609C297.92 51.0911 297.87 51.5619 297.71 52.0827C296.688 55.4583 295.646 58.8238 294.645 62.1994C294.294 63.3713 293.463 62.8505 292.862 62.7103C290.648 62.2094 288.424 61.8288 286.191 62.3396C282.174 63.2511 279.249 66.9773 278.688 71.685C277.997 77.4245 278.458 83.174 278.368 88.9234C278.348 90.1855 278.147 90.7164 276.725 90.6563C273.74 90.5461 270.745 90.5762 267.76 90.6864C266.438 90.7364 266.088 90.3658 266.088 89.0336C266.088 77.6949 266.018 66.3563 265.957 55.0176C265.957 53.6052 265.937 52.1929 265.897 50.7906C265.877 49.8791 266.218 49.4784 267.189 49.4885C270.515 49.5486 273.85 49.5786 277.176 49.5486C278.097 49.5486 278.328 49.9092 278.318 50.7505C278.278 52.9241 278.308 55.0977 278.308 57.2713C278.448 57.3114 278.588 57.3514 278.718 57.3915V57.4015Z" fill="white" stroke="white" stroke-miterlimit="10"/>
    <path d="M212.129 70.2426C212.129 76.6131 212.109 82.9836 212.159 89.3541C212.159 90.3156 211.938 90.6562 210.967 90.6462C207.691 90.6161 204.426 90.6061 201.151 90.6762C200.119 90.6963 199.949 90.2756 199.949 89.3841C199.929 76.6431 199.899 63.8921 199.798 51.1511C199.798 49.7989 200.299 49.5485 201.481 49.5785C204.526 49.6486 207.571 49.6687 210.616 49.5785C211.868 49.5385 212.099 50.0092 212.099 51.1311C212.059 57.5016 212.079 63.8721 212.079 70.2526C212.099 70.2526 212.109 70.2526 212.129 70.2526V70.2426Z" fill="white" stroke="white" stroke-miterlimit="10"/>
    <path d="M199.588 36.477C199.538 32.6708 202.423 29.6858 206.209 29.6157C209.875 29.5456 212.91 32.5005 212.93 36.1665C212.95 39.8426 210.015 42.7874 206.299 42.8175C202.593 42.8475 199.638 40.0629 199.598 36.477H199.588Z" fill="white" stroke="white" stroke-width="3" stroke-miterlimit="10"/>
    <path d="M147.913 25.2785C146.15 28.1232 144.437 30.8778 142.744 33.6423C141.162 36.2266 139.589 38.8209 138.007 41.3951C137.356 42.4569 135.953 42.8074 135.012 42.1263C134.371 41.6555 134.972 41.1948 135.182 40.8442C137.806 36.467 140.451 32.0998 143.105 27.7526C144.447 25.549 145.84 23.3754 147.192 21.1718C147.663 20.4105 147.923 19.9598 148.624 21.1117C153.152 28.5439 157.739 35.9261 162.327 43.3283C162.838 44.1496 163.208 44.7206 161.966 45.4318C160.834 46.0828 160.474 45.7823 159.923 44.8608C156.136 38.5604 152.3 32.2801 148.474 25.9997C148.364 25.8094 148.203 25.6492 147.923 25.2886L147.913 25.2785Z" fill="white" stroke="white" stroke-miterlimit="10"/>
    <path d="M147.853 43.2181C147.452 43.9093 147.202 44.2799 147.011 44.6805C146.5 45.7423 145.95 45.9226 144.818 45.2615C143.576 44.5403 144.167 43.9393 144.577 43.2281C145.369 41.8659 146.19 40.5337 146.981 39.1815C147.432 38.4002 147.843 38.2099 148.374 39.1214C150.497 42.7474 152.661 46.3333 154.744 49.9793C155.505 51.3215 154.093 51.9625 153.412 52.5034C152.791 53.0043 152.57 51.8624 152.32 51.4116C150.848 48.7973 149.435 46.143 147.853 43.2181Z" fill="white" stroke="white" stroke-miterlimit="10"/>
    <path d="M162.547 30.6073C164.44 33.6624 167.335 38.3301 169.238 41.3751C169.809 42.2966 171.492 42.7473 172.213 42.0462C172.994 41.2949 172.053 40.724 171.722 40.1831C169.599 36.7374 167.475 33.2917 165.352 29.8561C166.173 28.5039 166.994 27.1616 167.826 25.8094C169.088 23.7661 170.35 21.7227 171.652 19.6192C171.862 19.8796 171.972 19.9998 172.063 20.1401C174.897 24.7877 177.732 29.4354 180.537 34.1031C180.947 34.7942 181.208 35.0146 182.049 34.5338C182.971 34.0029 182.69 33.5922 182.32 32.9812C178.924 27.5022 175.528 22.0332 172.173 16.5341C171.652 15.6827 171.462 16.0133 171.111 16.5842C170.109 18.2169 169.078 19.8296 168.086 21.4623C166.774 23.6158 165.472 25.7794 164.16 27.9429C163.178 26.3603 162.206 24.7677 161.225 23.1851C162.747 20.6709 164.28 18.1568 165.812 15.6527C167.715 12.5375 169.629 9.43243 171.652 6.11697C174.597 10.8648 177.401 15.3822 180.206 19.8997C182.62 23.7861 185.024 27.6725 187.438 31.5489C187.859 32.23 189.111 32.5605 189.642 32.0497C190.223 31.4888 189.521 31.0681 189.281 30.6674C184.663 23.1651 180.026 15.6727 175.388 8.18037C174.196 6.26721 172.984 4.36408 171.702 2.33073C170.911 3.55274 170.21 4.57442 169.559 5.62616C166.343 10.7847 163.128 15.9532 159.983 21.1517C157.649 17.3755 155.305 13.5893 152.961 9.81306C151.359 7.21878 149.706 4.65456 147.973 1.91003C146.901 3.55274 145.96 4.94504 145.078 6.36738C138.087 17.6059 131.045 28.8144 124.464 40.2933C124.154 40.8342 123.332 41.6555 124.013 41.9861C124.634 42.2866 125.756 42.567 126.528 41.8258C126.848 41.5153 127.099 41.1347 127.339 40.754C131.576 33.8026 135.793 26.8411 140.03 19.8897C142.594 15.6827 145.178 11.4858 147.923 7.01845C151.509 12.808 154.944 18.3371 158.37 23.8462" fill="white"/>
    <path d="M162.547 30.6073C164.44 33.6624 167.335 38.3301 169.238 41.3751C169.809 42.2966 171.492 42.7473 172.213 42.0462C172.994 41.2949 172.053 40.724 171.722 40.1831C169.599 36.7374 167.475 33.2917 165.352 29.8561C166.173 28.5039 166.994 27.1616 167.826 25.8094C169.088 23.7661 170.35 21.7227 171.652 19.6192C171.862 19.8796 171.972 19.9998 172.063 20.1401C174.897 24.7877 177.732 29.4354 180.537 34.1031C180.947 34.7942 181.208 35.0146 182.049 34.5338C182.971 34.0029 182.69 33.5922 182.32 32.9812C178.924 27.5022 175.528 22.0332 172.173 16.5341C171.652 15.6827 171.462 16.0133 171.111 16.5842C170.109 18.2169 169.078 19.8296 168.086 21.4623C166.774 23.6158 165.472 25.7794 164.16 27.9429C163.178 26.3603 162.206 24.7677 161.225 23.1851C162.747 20.6709 164.28 18.1568 165.812 15.6527C167.715 12.5375 169.629 9.43243 171.652 6.11697C174.597 10.8648 177.401 15.3822 180.206 19.8997C182.62 23.7861 185.024 27.6725 187.438 31.5489C187.859 32.23 189.111 32.5605 189.642 32.0497C190.223 31.4888 189.521 31.0681 189.281 30.6674C184.663 23.1651 180.026 15.6727 175.388 8.18037C174.196 6.26721 172.984 4.36408 171.702 2.33073C170.911 3.55274 170.21 4.57442 169.559 5.62616C166.343 10.7847 163.128 15.9532 159.983 21.1517C157.649 17.3755 155.305 13.5893 152.961 9.81306C151.359 7.21878 149.706 4.65456 147.973 1.91003C146.901 3.55274 145.96 4.94504 145.078 6.36738C138.087 17.6059 131.045 28.8144 124.464 40.2933C124.154 40.8342 123.332 41.6555 124.013 41.9861C124.634 42.2866 125.756 42.567 126.528 41.8258C126.848 41.5153 127.099 41.1347 127.339 40.754C131.576 33.8026 135.793 26.8411 140.03 19.8897C142.594 15.6827 145.178 11.4858 147.923 7.01845C151.509 12.808 154.944 18.3371 158.37 23.8462" stroke="white" stroke-miterlimit="10"/>
    <path d="M158.35 23.8562C159.332 25.4388 161.565 29.0347 162.547 30.6173Z" fill="white"/>
    <path d="M158.35 23.8562C159.332 25.4388 161.565 29.0347 162.547 30.6173" stroke="white" stroke-miterlimit="10"/>
    <path d="M171.772 33.2016C171.702 33.0714 171.522 33.0714 171.452 33.2016C171.251 33.5422 171.111 33.7625 170.991 34.0029C170.61 34.7842 170.209 34.9244 169.368 34.4336C168.447 33.9028 168.887 33.452 169.188 32.9312C169.769 31.9295 170.38 30.9379 170.971 29.9362C171.311 29.3553 171.612 29.215 172.002 29.8861C173.575 32.5706 175.178 35.2249 176.72 37.9294C177.281 38.921 176.239 39.3918 175.739 39.7925C175.278 40.1631 175.118 39.3117 174.927 38.9811C173.886 37.1381 172.884 35.255 171.782 33.2116L171.772 33.2016Z" fill="white" stroke="white" stroke-miterlimit="10"/>
    <path d="M294.484 93.1503C297.804 93.1503 300.494 90.4596 300.494 87.1404C300.494 83.8212 297.804 81.1305 294.484 81.1305C291.165 81.1305 288.475 83.8212 288.475 87.1404C288.475 90.4596 291.165 93.1503 294.484 93.1503Z" stroke="white" stroke-miterlimit="10"/>
    <path d="M292.175 90.1322V84.4922H294.407C295.015 84.4922 295.479 84.6335 295.799 84.9162C296.125 85.1989 296.287 85.6015 296.287 86.1242C296.287 86.5402 296.173 86.8815 295.943 87.1482C295.719 87.4149 295.399 87.5882 294.983 87.6682C295.229 87.7535 295.439 87.9615 295.615 88.2922L296.607 90.1322H295.887L294.911 88.3242C294.789 88.1002 294.647 87.9482 294.487 87.8682C294.327 87.7882 294.117 87.7482 293.855 87.7482H292.831V90.1322H292.175ZM292.831 87.2282H294.311C295.197 87.2282 295.639 86.8602 295.639 86.1242C295.639 85.3989 295.197 85.0362 294.311 85.0362H292.831V87.2282Z" fill="white"/>
    <path d="M92.7846 111.17V102.71H98.3166V103.934H94.3206V106.322H98.0646V107.546H94.3206V111.17H92.7846ZM99.5229 111.17V102.71H101.059V111.17H99.5229ZM102.898 111.17V102.71H104.05L108.598 108.614V102.71H110.026V111.17H108.886L104.326 105.242V111.17H102.898ZM111.874 111.17V102.71H117.502V103.934H113.35V106.262H117.238V107.486H113.35V109.946H117.502V111.17H111.874ZM121.833 111.29C121.169 111.29 120.553 111.206 119.985 111.038C119.417 110.862 118.937 110.626 118.545 110.33L119.013 109.118C119.405 109.398 119.833 109.614 120.297 109.766C120.769 109.918 121.281 109.994 121.833 109.994C122.465 109.994 122.925 109.89 123.213 109.682C123.501 109.466 123.645 109.19 123.645 108.854C123.645 108.574 123.541 108.354 123.333 108.194C123.133 108.034 122.785 107.902 122.289 107.798L120.969 107.522C119.465 107.202 118.713 106.43 118.713 105.206C118.713 104.678 118.853 104.218 119.133 103.826C119.413 103.434 119.801 103.13 120.297 102.914C120.793 102.698 121.365 102.59 122.013 102.59C122.589 102.59 123.129 102.678 123.633 102.854C124.137 103.022 124.557 103.262 124.893 103.574L124.425 104.726C123.761 104.166 122.953 103.886 122.001 103.886C121.449 103.886 121.017 104.002 120.705 104.234C120.393 104.466 120.237 104.77 120.237 105.146C120.237 105.434 120.333 105.666 120.525 105.842C120.717 106.01 121.045 106.142 121.509 106.238L122.817 106.514C123.609 106.682 124.197 106.946 124.581 107.306C124.973 107.666 125.169 108.146 125.169 108.746C125.169 109.25 125.033 109.694 124.761 110.078C124.489 110.462 124.101 110.762 123.597 110.978C123.101 111.186 122.513 111.29 121.833 111.29ZM128.352 111.17V103.994H125.448V102.71H132.792V103.994H129.888V111.17H128.352ZM136.999 111.17V102.71H140.143C141.559 102.71 142.651 103.074 143.419 103.802C144.195 104.53 144.583 105.574 144.583 106.934C144.583 108.286 144.195 109.33 143.419 110.066C142.651 110.802 141.559 111.17 140.143 111.17H136.999ZM138.535 109.898H140.047C141.999 109.898 142.975 108.91 142.975 106.934C142.975 104.966 141.999 103.982 140.047 103.982H138.535V109.898ZM146.14 111.17V102.71H149.812C150.74 102.71 151.456 102.934 151.96 103.382C152.464 103.822 152.716 104.442 152.716 105.242C152.716 105.874 152.552 106.398 152.224 106.814C151.896 107.222 151.424 107.498 150.808 107.642C151.216 107.77 151.552 108.078 151.816 108.566L153.232 111.17H151.54L150.076 108.47C149.932 108.206 149.76 108.026 149.56 107.93C149.368 107.834 149.12 107.786 148.816 107.786H147.676V111.17H146.14ZM147.676 106.646H149.548C150.668 106.646 151.228 106.19 151.228 105.278C151.228 104.374 150.668 103.922 149.548 103.922H147.676V106.646ZM154.367 111.17V102.71H155.903V111.17H154.367ZM157.742 111.17V102.71H158.894L163.442 108.614V102.71H164.87V111.17H163.73L159.17 105.242V111.17H157.742ZM166.718 111.17V102.71H168.254V106.454H168.278L172.01 102.71H173.882L169.766 106.778L174.086 111.17H172.19L168.278 107.258H168.254V111.17H166.718ZM174.687 111.17V102.71H176.223V111.17H174.687ZM178.062 111.17V102.71H179.214L183.762 108.614V102.71H185.19V111.17H184.05L179.49 105.242V111.17H178.062ZM191.107 111.29C190.171 111.29 189.379 111.114 188.731 110.762C188.091 110.41 187.603 109.91 187.267 109.262C186.931 108.614 186.763 107.846 186.763 106.958C186.763 106.062 186.935 105.29 187.279 104.642C187.623 103.986 188.119 103.482 188.767 103.13C189.415 102.77 190.191 102.59 191.095 102.59C191.687 102.59 192.243 102.678 192.763 102.854C193.283 103.022 193.715 103.258 194.059 103.562L193.543 104.762C193.167 104.466 192.783 104.254 192.391 104.126C191.999 103.998 191.567 103.934 191.095 103.934C190.199 103.934 189.519 104.194 189.055 104.714C188.599 105.234 188.371 105.982 188.371 106.958C188.371 107.942 188.607 108.69 189.079 109.202C189.551 109.714 190.251 109.97 191.179 109.97C191.443 109.97 191.711 109.95 191.983 109.91C192.263 109.862 192.539 109.794 192.811 109.706V107.738H190.867V106.598H194.095V110.666C193.703 110.858 193.239 111.01 192.703 111.122C192.167 111.234 191.635 111.29 191.107 111.29ZM201.437 111.17L198.449 102.71H200.033L202.133 108.95L204.341 102.71H205.481L207.641 109.034L209.801 102.71H211.301L208.289 111.17H207.017L204.869 105.062L202.709 111.17H201.437ZM210.841 111.17L214.669 102.71H215.929L219.757 111.17H218.197L217.357 109.214H213.229L212.401 111.17H210.841ZM215.281 104.378L213.757 107.99H216.829L215.305 104.378H215.281ZM221.786 111.17V103.994H218.882V102.71H226.226V103.994H223.322V111.17H221.786ZM227.199 111.17V102.71H232.827V103.934H228.675V106.262H232.563V107.486H228.675V109.946H232.827V111.17H227.199ZM234.359 111.17V102.71H238.031C238.959 102.71 239.675 102.934 240.179 103.382C240.683 103.822 240.935 104.442 240.935 105.242C240.935 105.874 240.771 106.398 240.443 106.814C240.115 107.222 239.643 107.498 239.027 107.642C239.435 107.77 239.771 108.078 240.035 108.566L241.451 111.17H239.759L238.295 108.47C238.151 108.206 237.979 108.026 237.779 107.93C237.587 107.834 237.339 107.786 237.035 107.786H235.895V111.17H234.359ZM235.895 106.646H237.767C238.887 106.646 239.447 106.19 239.447 105.278C239.447 104.374 238.887 103.922 237.767 103.922H235.895V106.646Z" fill="white"/>
</svg>
