<svg width="16" height="20" viewBox="0 0 16 20" fill="none" xmlns="http://www.w3.org/2000/svg">
<path d="M7.79999 8.29993C9.67774 8.29993 11.2 6.77771 11.2 4.89996C11.2 3.02222 9.67774 1.5 7.79999 1.5C5.92224 1.5 4.40002 3.02222 4.40002 4.89996C4.40002 6.77771 5.92224 8.29993 7.79999 8.29993Z" stroke="white" stroke-width="1.5"/>
<path d="M14.5977 15.1001C14.5999 14.9605 14.5999 14.8187 14.5999 14.6751C14.5999 12.5626 11.5554 10.8501 7.79993 10.8501C4.04443 10.8501 1 12.5626 1 14.6751C1 16.7875 1 18.5 7.79993 18.5C9.69626 18.5 11.0637 18.3668 12.0499 18.1289" stroke="white" stroke-width="1.5" stroke-linecap="round"/>
</svg>
