<svg width="21" height="22" viewBox="0 0 21 22" fill="none" xmlns="http://www.w3.org/2000/svg">
<path d="M15.4585 12.5415C15.4182 12.5222 13.9118 11.7804 13.6442 11.6841C13.5349 11.6448 13.4178 11.6065 13.2933 11.6065C13.0899 11.6065 12.919 11.7079 12.7859 11.907C12.6354 12.1307 12.1799 12.6631 12.0392 12.8222C12.0208 12.8432 11.9957 12.8683 11.9807 12.8683C11.9672 12.8683 11.734 12.7723 11.6635 12.7416C10.0475 12.0397 8.82099 10.3517 8.6528 10.0671C8.62878 10.0261 8.62757 10.0076 8.62757 10.0076C8.63348 9.9859 8.68782 9.93142 8.71586 9.90331C8.79791 9.82214 8.8868 9.71513 8.97281 9.61162C9.01353 9.56258 9.05432 9.51347 9.09437 9.46718C9.21915 9.322 9.2747 9.2093 9.3391 9.07874L9.37285 9.01092C9.5301 8.69849 9.39579 8.43484 9.35238 8.34971C9.31676 8.27846 8.68071 6.74337 8.61308 6.58209C8.45046 6.19292 8.23558 6.01172 7.93698 6.01172C7.90927 6.01172 7.93698 6.01172 7.82078 6.01662C7.6793 6.02259 6.9088 6.12402 6.56813 6.33877C6.20687 6.56653 5.5957 7.29255 5.5957 8.56935C5.5957 9.71849 6.32494 10.8035 6.63804 11.2161C6.64582 11.2265 6.66011 11.2477 6.68084 11.278C7.87989 13.0291 9.37466 14.3268 10.89 14.9322C12.3488 15.5149 13.0396 15.5822 13.4323 15.5822C13.5973 15.5822 13.7295 15.5693 13.846 15.5578L13.9199 15.5508C14.4239 15.5061 15.5314 14.9322 15.7833 14.2322C15.9817 13.6808 16.0341 13.0783 15.902 12.8597C15.8116 12.711 15.6558 12.6362 15.4585 12.5415Z" fill="white"/>
<path d="M10.6838 0.668457C5.08763 0.668457 0.534823 5.18705 0.534823 10.7411C0.534823 12.5375 1.01557 14.2959 1.92628 15.8349L0.183152 20.9768C0.150682 21.0727 0.174833 21.1787 0.245745 21.2509C0.296932 21.3031 0.366367 21.3313 0.437279 21.3313C0.464449 21.3313 0.49182 21.3272 0.518521 21.3187L5.88013 19.615C7.34733 20.3989 9.00559 20.8127 10.6838 20.8127C16.2795 20.8127 20.8318 16.2946 20.8318 10.7411C20.8318 5.18705 16.2795 0.668457 10.6838 0.668457ZM10.6838 18.7145C9.10461 18.7145 7.57509 18.2585 6.26031 17.3958C6.2161 17.3667 6.16478 17.3518 6.11312 17.3518C6.08582 17.3518 6.05845 17.356 6.03181 17.3644L3.34598 18.2182L4.21301 15.6602C4.24106 15.5774 4.22703 15.4861 4.17538 15.4156C3.17417 14.0475 2.64492 12.4312 2.64492 10.7411C2.64492 6.34403 6.25112 2.76668 10.6837 2.76668C15.1158 2.76668 18.7216 6.34403 18.7216 10.7411C18.7216 15.1377 15.1159 18.7145 10.6838 18.7145Z" fill="white"/>
</svg>
